<svg width="100" height="100" viewBox="0 0 100 100" fill="none" xmlns="http://www.w3.org/2000/svg">
  <g id="logo">
    <g id="background">
      <path id="vector" fill-rule="evenodd" clip-rule="evenodd" d="M49.9998 0L6.25 24.999V74.999L49.9998 100L93.7376 75.007L93.7495 74.9871V24.999L49.9998 0Z" fill="white"/>
    </g>
    <g id="foreground">
      <path id="vector_2" fill-rule="evenodd" clip-rule="evenodd" d="M50 7L12 28.7135V72.1424L50 93.8576L87.9896 72.1493L88 72.132V28.7135L50 7ZM22.9751 30.7984L50 15.36L77.0232 30.7984L69.7151 34.9766L50 23.7165L30.2901 34.9784L22.9751 30.7984ZM53.6584 48.344V34.1631L66.0636 41.2518V55.4293L53.6584 48.3457V48.344ZM33.9398 41.2501L46.3416 34.1648V48.3405L33.9398 55.4275V41.2501ZM53.6584 75.0528L73.3752 63.7875V41.2449L80.6867 37.0649V67.9658L53.6584 83.4094V75.0528ZM19.3115 67.9658V37.0649L26.6231 41.2449V63.7841L46.3416 75.0528V83.4094L19.3115 67.9675V67.9658ZM37.5913 61.6958L49.9965 54.6071L62.4035 61.6958L50 68.7811L37.5913 61.6958Z" fill="#526488"/>
    </g>
  </g>
</svg>
